<?xml version="1.0" encoding="UTF-8"?>
<svg width="700pt" height="700pt" version="1.1" viewBox="0 0 700 700" xmlns="http://www.w3.org/2000/svg" xmlns:xlink="http://www.w3.org/1999/xlink">
 <defs>
  <symbol id="v" overflow="visible">
   <path d="m0.9375-0.0625c-0.042969 0.03125-0.089844 0.054688-0.14062 0.0625-0.054687 0.0078125-0.10938 0.015625-0.17188 0.015625-0.16797 0-0.30469-0.046875-0.40625-0.14062-0.10547-0.09375-0.15625-0.22266-0.15625-0.39062 0-0.15625 0.050781-0.28125 0.15625-0.375 0.10156-0.10156 0.23828-0.15625 0.40625-0.15625 0.0625 0 0.11719 0.011719 0.17188 0.03125 0.050781 0.011719 0.097656 0.027344 0.14062 0.046875v0.21875c-0.042969-0.039062-0.089844-0.066406-0.14062-0.078125-0.054687-0.019531-0.10547-0.03125-0.15625-0.03125-0.09375 0-0.16797 0.03125-0.21875 0.09375-0.054687 0.0625-0.078125 0.14844-0.078125 0.25 0 0.10547 0.023438 0.1875 0.078125 0.25 0.050781 0.0625 0.125 0.09375 0.21875 0.09375 0.050781 0 0.10156-0.003906 0.15625-0.015625 0.050781-0.019531 0.097656-0.046875 0.14062-0.078125z"/>
  </symbol>
  <symbol id="c" overflow="visible">
   <path d="m0.6875-0.5625c-0.023438-0.007812-0.042969-0.015625-0.0625-0.015625-0.023438-0.007813-0.042969-0.015625-0.0625-0.015625-0.0625 0-0.11719 0.023438-0.15625 0.0625-0.03125 0.042969-0.046875 0.10156-0.046875 0.17188v0.35938h-0.23438v-0.76562h0.23438v0.125c0.03125-0.050781 0.066406-0.085937 0.10938-0.10938 0.039062-0.019531 0.09375-0.03125 0.15625-0.03125h0.015625 0.046875z"/>
  </symbol>
  <symbol id="a" overflow="visible">
   <path d="m0.89062-0.39062v0.078125h-0.57812c0 0.054688 0.015625 0.09375 0.046875 0.125 0.039063 0.03125 0.09375 0.046875 0.15625 0.046875 0.050781 0 0.10156-0.003906 0.15625-0.015625 0.0625-0.019531 0.11719-0.046875 0.17188-0.078125v0.1875c-0.054688 0.023438-0.10938 0.039062-0.17188 0.046875-0.054687 0.0078125-0.10938 0.015625-0.17188 0.015625-0.13672 0-0.24609-0.03125-0.32812-0.09375-0.074219-0.070313-0.10938-0.17578-0.10938-0.3125 0-0.125 0.035156-0.21875 0.10938-0.28125 0.070313-0.070313 0.17578-0.10938 0.3125-0.10938 0.125 0 0.22266 0.039062 0.29688 0.10938 0.070312 0.074219 0.10938 0.16797 0.10938 0.28125zm-0.25-0.078125c0-0.039062-0.015625-0.078125-0.046875-0.10938s-0.070312-0.046875-0.10938-0.046875c-0.054687 0-0.09375 0.015625-0.125 0.046875-0.023437 0.023437-0.039063 0.058594-0.046875 0.10938z"/>
  </symbol>
  <symbol id="b" overflow="visible">
   <path d="m0.46875-0.34375c-0.054688 0-0.09375 0.011719-0.125 0.03125-0.023438 0.011719-0.03125 0.03125-0.03125 0.0625s0.007812 0.058594 0.03125 0.078125c0.019531 0.023437 0.046875 0.03125 0.078125 0.03125 0.050781 0 0.09375-0.015625 0.125-0.046875 0.03125-0.039062 0.046875-0.082031 0.046875-0.125v-0.03125zm0.375-0.09375v0.4375h-0.25v-0.10938c-0.03125 0.042969-0.070312 0.074219-0.10938 0.09375-0.042969 0.019531-0.09375 0.03125-0.15625 0.03125-0.085937 0-0.15234-0.019531-0.20312-0.0625-0.042969-0.050781-0.0625-0.11328-0.0625-0.1875 0-0.082031 0.03125-0.14453 0.09375-0.1875 0.0625-0.050781 0.16016-0.078125 0.29688-0.078125h0.14062v-0.015625c0-0.03125-0.015625-0.054687-0.046875-0.078125-0.03125-0.019531-0.078125-0.03125-0.14062-0.03125-0.054688 0-0.10547 0.007812-0.15625 0.015625-0.042969 0.011719-0.085938 0.027344-0.125 0.046875v-0.1875c0.050781-0.007812 0.10156-0.015625 0.15625-0.015625 0.050781-0.007813 0.10938-0.015625 0.17188-0.015625 0.13281 0 0.23438 0.027344 0.29688 0.078125 0.0625 0.054687 0.09375 0.14062 0.09375 0.26562z"/>
  </symbol>
  <symbol id="e" overflow="visible">
   <path d="m0.39062-0.98438v0.21875h0.25v0.17188h-0.25v0.32812c0 0.03125 0.003906 0.058594 0.015625 0.078125 0.007812 0.011719 0.039062 0.015625 0.09375 0.015625h0.125v0.17188h-0.21875c-0.09375 0-0.16406-0.019531-0.20312-0.0625-0.042969-0.039062-0.0625-0.10938-0.0625-0.20312v-0.32812h-0.125v-0.17188h0.125v-0.21875z"/>
  </symbol>
  <symbol id="h" overflow="visible">
   <path d="m0.64062-0.65625v-0.40625h0.25v1.0625h-0.25v-0.10938c-0.03125 0.042969-0.070313 0.074219-0.10938 0.09375-0.042969 0.019531-0.089844 0.03125-0.14062 0.03125-0.09375 0-0.17188-0.035156-0.23438-0.10938-0.0625-0.070312-0.09375-0.17188-0.09375-0.29688 0-0.11328 0.03125-0.20703 0.09375-0.28125 0.0625-0.070313 0.14062-0.10938 0.23438-0.10938 0.050781 0 0.097656 0.011719 0.14062 0.03125 0.039062 0.023438 0.078125 0.054688 0.10938 0.09375zm-0.15625 0.5c0.050781 0 0.085937-0.019531 0.10938-0.0625 0.03125-0.039062 0.046875-0.097656 0.046875-0.17188 0-0.070313-0.015625-0.125-0.046875-0.15625-0.023438-0.039063-0.058594-0.0625-0.10938-0.0625-0.054687 0-0.09375 0.023437-0.125 0.0625-0.03125 0.03125-0.046875 0.085937-0.046875 0.15625 0 0.074219 0.015625 0.13281 0.046875 0.17188 0.03125 0.042969 0.070313 0.0625 0.125 0.0625z"/>
  </symbol>
  <symbol id="n" overflow="visible">
   <path d="m0.53125-0.15625c0.050781 0 0.085938-0.019531 0.10938-0.0625 0.03125-0.039062 0.046875-0.097656 0.046875-0.17188 0-0.070313-0.015625-0.125-0.046875-0.15625-0.023437-0.039063-0.058594-0.0625-0.10938-0.0625-0.054688 0-0.09375 0.023437-0.125 0.0625-0.03125 0.03125-0.046875 0.085937-0.046875 0.15625 0 0.074219 0.015625 0.13281 0.046875 0.17188 0.03125 0.042969 0.070312 0.0625 0.125 0.0625zm-0.17188-0.5c0.039063-0.039062 0.078125-0.070312 0.10938-0.09375 0.039062-0.019531 0.09375-0.03125 0.15625-0.03125 0.09375 0 0.16406 0.039062 0.21875 0.10938 0.0625 0.074219 0.09375 0.16797 0.09375 0.28125 0 0.125-0.03125 0.22656-0.09375 0.29688-0.054688 0.074219-0.125 0.10938-0.21875 0.10938-0.0625 0-0.11719-0.011719-0.15625-0.03125-0.03125-0.019531-0.070312-0.050781-0.10938-0.09375v0.10938h-0.23438v-1.0625h0.23438z"/>
  </symbol>
  <symbol id="m" overflow="visible">
   <path d="m0.015625-0.76562h0.25l0.20312 0.51562 0.17188-0.51562h0.25l-0.32812 0.84375c-0.03125 0.082031-0.070312 0.14062-0.10938 0.17188-0.042969 0.03125-0.10156 0.046875-0.17188 0.046875h-0.14062v-0.15625h0.078125c0.039062 0 0.070312-0.007813 0.09375-0.015625 0.019531-0.011719 0.035156-0.039062 0.046875-0.078125v-0.015625z"/>
  </symbol>
  <symbol id="d" overflow="visible">
   <path d="m0.125-0.76562h0.23438v0.76562h-0.23438zm0-0.29688h0.23438v0.1875h-0.23438z"/>
  </symbol>
  <symbol id="g" overflow="visible">
   <path d="m0.89062-0.46875v0.46875h-0.25v-0.35938-0.125c0-0.03125-0.007813-0.050781-0.015625-0.0625-0.011719-0.019531-0.027344-0.035156-0.046875-0.046875-0.011719-0.007812-0.027344-0.015625-0.046875-0.015625-0.054688 0-0.09375 0.023437-0.125 0.0625-0.03125 0.042969-0.046875 0.10156-0.046875 0.17188v0.375h-0.23438v-0.76562h0.23438v0.10938c0.039063-0.039062 0.082031-0.070312 0.125-0.09375 0.039063-0.019531 0.085937-0.03125 0.14062-0.03125 0.082031 0 0.14453 0.027344 0.1875 0.078125 0.050781 0.054687 0.078125 0.13281 0.078125 0.23438z"/>
  </symbol>
  <symbol id="l" overflow="visible">
   <path d="m0.078125-0.76562h0.67188v0.17188l-0.40625 0.42188h0.40625v0.17188h-0.6875v-0.17188l0.40625-0.42188h-0.39062z"/>
  </symbol>
  <symbol id="u" overflow="visible">
   <path d="m0.125-1.0625h0.23438v1.0625h-0.23438z"/>
  </symbol>
  <symbol id="k" overflow="visible">
   <path d="m0.125-0.76562h0.23438v0.75c0 0.10156-0.027344 0.17969-0.078125 0.23438-0.042969 0.050781-0.10938 0.078125-0.20312 0.078125h-0.125v-0.15625h0.046875c0.039062 0 0.070312-0.011719 0.09375-0.03125 0.019531-0.023438 0.03125-0.0625 0.03125-0.125zm0-0.29688h0.23438v0.1875h-0.23438z"/>
  </symbol>
  <symbol id="j" overflow="visible">
   <path d="m0.71875-0.75v0.1875c-0.054688-0.019531-0.10547-0.035156-0.15625-0.046875-0.042969-0.007813-0.089844-0.015625-0.14062-0.015625-0.042969 0-0.074219 0.007812-0.09375 0.015625-0.023437 0.011719-0.03125 0.03125-0.03125 0.0625 0 0.023437 0.003906 0.039063 0.015625 0.046875 0.019531 0.011719 0.050781 0.015625 0.09375 0.015625h0.046875c0.125 0.023437 0.20703 0.054687 0.25 0.09375 0.039063 0.03125 0.0625 0.085937 0.0625 0.15625 0 0.085937-0.03125 0.14844-0.09375 0.1875-0.054687 0.042969-0.14062 0.0625-0.26562 0.0625-0.054688 0-0.10547-0.0078125-0.15625-0.015625-0.054688 0-0.10938-0.0078125-0.17188-0.03125v-0.1875c0.050781 0.03125 0.10156 0.054688 0.15625 0.0625 0.050781 0.011719 0.10156 0.015625 0.15625 0.015625 0.050781 0 0.085937-0.003906 0.10938-0.015625 0.019531-0.019531 0.03125-0.039062 0.03125-0.0625 0-0.019531-0.011719-0.035156-0.03125-0.046875-0.011719-0.007813-0.042969-0.019531-0.09375-0.03125h-0.03125c-0.11719-0.019531-0.19531-0.046875-0.23438-0.078125-0.042969-0.039062-0.0625-0.097656-0.0625-0.17188 0-0.082031 0.023437-0.14062 0.078125-0.17188 0.050781-0.039062 0.13281-0.0625 0.25-0.0625 0.050781 0 0.097656 0.007812 0.14062 0.015625 0.050781 0 0.10938 0.007813 0.17188 0.015625z"/>
  </symbol>
  <symbol id="i" overflow="visible">
   <path d="m0.82812-0.64062c0.03125-0.050781 0.066406-0.085937 0.10938-0.10938 0.039062-0.019531 0.085938-0.03125 0.14062-0.03125 0.09375 0 0.16016 0.027344 0.20312 0.078125 0.050781 0.054687 0.078125 0.13281 0.078125 0.23438v0.46875h-0.25v-0.40625-0.046875c0-0.050781-0.011719-0.085937-0.03125-0.10938-0.011719-0.03125-0.039063-0.046875-0.078125-0.046875-0.042969 0-0.078125 0.023437-0.10938 0.0625-0.023437 0.042969-0.03125 0.10156-0.03125 0.17188v0.375h-0.25v-0.40625c0-0.082031-0.011719-0.13281-0.03125-0.15625-0.011719-0.03125-0.03125-0.046875-0.0625-0.046875-0.054687 0-0.09375 0.023437-0.125 0.0625-0.023437 0.042969-0.03125 0.10156-0.03125 0.17188v0.375h-0.25v-0.76562h0.25v0.10938c0.03125-0.039062 0.066406-0.070312 0.10938-0.09375 0.039062-0.019531 0.082031-0.03125 0.125-0.03125 0.050781 0 0.097656 0.015625 0.14062 0.046875 0.039063 0.023437 0.070313 0.054687 0.09375 0.09375z"/>
  </symbol>
  <symbol id="t" overflow="visible">
   <path d="m0.625-1.0625v0.15625h-0.14062c-0.03125 0-0.058594 0.007812-0.078125 0.015625-0.011719 0.011719-0.015625 0.03125-0.015625 0.0625v0.0625h0.21875v0.17188h-0.21875v0.59375h-0.23438v-0.59375h-0.125v-0.17188h0.125v-0.0625c0-0.082031 0.019531-0.14062 0.0625-0.17188 0.050781-0.039062 0.125-0.0625 0.21875-0.0625z"/>
  </symbol>
  <symbol id="f" overflow="visible">
   <path d="m0.48438-0.60938c-0.054687 0-0.09375 0.023437-0.125 0.0625-0.03125 0.03125-0.046875 0.085937-0.046875 0.15625 0 0.085937 0.015625 0.14844 0.046875 0.1875 0.03125 0.03125 0.070313 0.046875 0.125 0.046875 0.050781 0 0.09375-0.015625 0.125-0.046875 0.03125-0.039063 0.046875-0.10156 0.046875-0.1875 0-0.070313-0.015625-0.125-0.046875-0.15625-0.03125-0.039063-0.074219-0.0625-0.125-0.0625zm0-0.17188c0.13281 0 0.23828 0.039062 0.3125 0.10938 0.070313 0.0625 0.10938 0.15625 0.10938 0.28125 0 0.13672-0.039062 0.24219-0.10938 0.3125-0.074219 0.0625-0.17969 0.09375-0.3125 0.09375-0.13672 0-0.24219-0.03125-0.3125-0.09375-0.074219-0.070313-0.10938-0.17578-0.10938-0.3125 0-0.125 0.035156-0.21875 0.10938-0.28125 0.070313-0.070313 0.17578-0.10938 0.3125-0.10938z"/>
  </symbol>
  <symbol id="s" overflow="visible">
   <path d="m0.89062-0.46875v0.46875h-0.25v-0.35938-0.125c0-0.03125-0.007813-0.050781-0.015625-0.0625-0.011719-0.019531-0.027344-0.035156-0.046875-0.046875-0.011719-0.007812-0.027344-0.015625-0.046875-0.015625-0.054688 0-0.09375 0.023437-0.125 0.0625-0.03125 0.042969-0.046875 0.10156-0.046875 0.17188v0.375h-0.23438v-1.0625h0.23438v0.40625c0.039063-0.039062 0.082031-0.070312 0.125-0.09375 0.039063-0.019531 0.085937-0.03125 0.14062-0.03125 0.082031 0 0.14453 0.027344 0.1875 0.078125 0.050781 0.054687 0.078125 0.13281 0.078125 0.23438z"/>
  </symbol>
  <symbol id="r" overflow="visible">
   <path d="m0.125-1.0312h0.29688l0.375 0.70312v-0.70312h0.25v1.0312h-0.29688l-0.375-0.70312v0.70312h-0.25z"/>
  </symbol>
  <symbol id="q" overflow="visible">
   <path d="m0.10938-0.29688v-0.46875h0.25v0.078125 0.15625 0.125 0.14062c0 0.023437 0.003906 0.039063 0.015625 0.046875 0.007812 0.023438 0.019531 0.039062 0.03125 0.046875h0.0625c0.050781 0 0.09375-0.015625 0.125-0.046875 0.03125-0.039062 0.046875-0.097656 0.046875-0.17188v-0.375h0.25v0.76562h-0.25v-0.10938c-0.042969 0.042969-0.085937 0.074219-0.125 0.09375-0.042969 0.019531-0.089844 0.03125-0.14062 0.03125-0.085938 0-0.15234-0.023438-0.20312-0.078125-0.042969-0.050781-0.0625-0.12891-0.0625-0.23438z"/>
  </symbol>
  <symbol id="p" overflow="visible">
   <path d="m0.125-1.0312h0.4375c0.13281 0 0.23438 0.03125 0.29688 0.09375 0.070313 0.0625 0.10938 0.14844 0.10938 0.25 0 0.10547-0.039062 0.1875-0.10938 0.25-0.0625 0.054688-0.16406 0.078125-0.29688 0.078125h-0.17188v0.35938h-0.26562zm0.26562 0.20312v0.28125h0.15625c0.039063 0 0.078125-0.007813 0.10938-0.03125 0.03125-0.03125 0.046875-0.066406 0.046875-0.10938 0-0.050781-0.015625-0.085938-0.046875-0.10938-0.03125-0.019531-0.070312-0.03125-0.10938-0.03125z"/>
  </symbol>
  <symbol id="o" overflow="visible">
   <path d="m0.73438-0.75v0.20312c-0.03125-0.019531-0.0625-0.035156-0.09375-0.046875-0.03125-0.007812-0.070313-0.015625-0.10938-0.015625-0.0625 0-0.11719 0.023437-0.15625 0.0625-0.042969 0.042969-0.0625 0.09375-0.0625 0.15625 0 0.074219 0.019531 0.13281 0.0625 0.17188 0.039062 0.042969 0.09375 0.0625 0.15625 0.0625 0.039062 0 0.078125-0.003906 0.10938-0.015625 0.039063-0.007813 0.070313-0.023437 0.09375-0.046875v0.20312c-0.03125 0.011719-0.070313 0.015625-0.10938 0.015625-0.042969 0.0078125-0.085938 0.015625-0.125 0.015625-0.13672 0-0.24609-0.03125-0.32812-0.09375-0.074219-0.070313-0.10938-0.17578-0.10938-0.3125 0-0.125 0.035156-0.21875 0.10938-0.28125 0.082031-0.070313 0.19141-0.10938 0.32812-0.10938 0.039062 0 0.082031 0.007812 0.125 0.015625 0.039062 0 0.078125 0.007813 0.10938 0.015625z"/>
  </symbol>
 </defs>
 <g>
  <path d="m350 406.06c-15.637 0-30.812-3.0625-45.098-9.1094-13.797-5.8359-26.188-14.188-36.824-24.824-10.637-10.637-18.988-23.027-24.824-36.824-6.043-14.289-9.1094-29.461-9.1094-45.098s3.0625-30.809 9.1094-45.098c5.8359-13.797 14.188-26.188 24.824-36.824 10.637-10.637 23.027-18.988 36.824-24.824 14.289-6.043 29.461-9.1094 45.098-9.1094s30.812 3.0625 45.098 9.1094c13.797 5.8359 26.188 14.188 36.824 24.824 10.637 10.637 18.988 23.027 24.824 36.824 6.043 14.289 9.1094 29.461 9.1094 45.098s-3.0625 30.812-9.1094 45.098c-5.8359 13.797-14.188 26.188-24.824 36.824-10.637 10.637-23.027 18.988-36.824 24.824-14.285 6.0469-29.461 9.1094-45.098 9.1094zm0-214.07c-54.156 0-98.215 44.059-98.215 98.215s44.059 98.215 98.215 98.215 98.215-44.059 98.215-98.215-44.059-98.215-98.215-98.215z"/>
  <path d="m350 158.9c-4.8711 0-8.8203-3.9492-8.8203-8.8203v-66.078c0-4.8711 3.9492-8.8203 8.8203-8.8203s8.8203 3.9492 8.8203 8.8203v66.078c0 4.8711-3.9492 8.8203-8.8203 8.8203z"/>
  <path d="m240.43 211.66c-1.9297 0-3.8711-0.62891-5.4922-1.9219l-51.66-41.199c-3.8086-3.0391-4.4336-8.5859-1.3984-12.395 3.0391-3.8086 8.5859-4.4336 12.395-1.3984l51.66 41.199c3.8086 3.0391 4.4336 8.5859 1.3984 12.395-1.7422 2.1836-4.3086 3.3203-6.9023 3.3203z"/>
  <path d="m148.95 344.92c-4.0234 0-7.6562-2.7734-8.5898-6.8594-1.082-4.75 1.8867-9.4766 6.6367-10.562l64.418-14.703c4.75-1.082 9.4766 1.8867 10.562 6.6367 1.082 4.75-1.8867 9.4766-6.6367 10.562l-64.418 14.703c-0.66406 0.14844-1.3242 0.22266-1.9727 0.22266z"/>
  <path d="m260.52 484.82c-1.2812 0-2.5859-0.28125-3.8203-0.875-4.3867-2.1133-6.2344-7.3828-4.1172-11.773l28.668-59.535c2.1133-4.3867 7.3828-6.2344 11.773-4.1172 4.3867 2.1133 6.2344 7.3828 4.1172 11.773l-28.668 59.535c-1.5234 3.1523-4.6719 4.9922-7.9531 4.9922z"/>
  <path d="m439.48 484.82c-3.2812 0-6.4336-1.8398-7.9531-4.9961l-28.668-59.535c-2.1133-4.3867-0.26953-9.6602 4.1172-11.773 4.3867-2.1133 9.6602-0.26953 11.773 4.1172l28.668 59.535c2.1133 4.3867 0.26953 9.6602-4.1172 11.773-1.2344 0.59375-2.5352 0.87891-3.8203 0.87891z"/>
  <path d="m551.05 344.92c-0.64844 0-1.3086-0.074219-1.9727-0.22266l-64.418-14.703c-4.75-1.082-7.7188-5.8125-6.6367-10.562s5.8125-7.7188 10.562-6.6367l64.418 14.703c4.75 1.082 7.7188 5.8125 6.6367 10.562-0.92969 4.0898-4.5664 6.8594-8.5898 6.8594z"/>
  <path d="m459.57 211.66c-2.5938 0-5.1602-1.1367-6.9023-3.3203-3.0391-3.8086-2.4102-9.3594 1.3984-12.395l51.66-41.199c3.8086-3.0391 9.3594-2.4102 12.395 1.3984 3.0391 3.8086 2.4102 9.3594-1.3984 12.395l-51.66 41.199c-1.6211 1.2969-3.5625 1.9219-5.4922 1.9219z"/>
  <use x="70" y="564.199219" xlink:href="#v"/>
  <use x="71.027344" y="564.199219" xlink:href="#c"/>
  <use x="71.71875" y="564.199219" xlink:href="#a"/>
  <use x="72.667969" y="564.199219" xlink:href="#b"/>
  <use x="73.613281" y="564.199219" xlink:href="#e"/>
  <use x="74.28125" y="564.199219" xlink:href="#a"/>
  <use x="75.230469" y="564.199219" xlink:href="#h"/>
  <use x="76.71875" y="564.199219" xlink:href="#n"/>
  <use x="77.722656" y="564.199219" xlink:href="#m"/>
  <use x="79.121094" y="564.199219" xlink:href="#d"/>
  <use x="79.601562" y="564.199219" xlink:href="#g"/>
  <use x="80.597656" y="564.199219" xlink:href="#a"/>
  <use x="81.546875" y="564.199219" xlink:href="#l"/>
  <use x="82.363281" y="564.199219" xlink:href="#l"/>
  <use x="83.179688" y="564.199219" xlink:href="#b"/>
  <use x="84.609375" y="564.199219" xlink:href="#b"/>
  <use x="85.554688" y="564.199219" xlink:href="#c"/>
  <use x="86.246094" y="564.199219" xlink:href="#h"/>
  <use x="87.246094" y="564.199219" xlink:href="#a"/>
  <use x="88.195312" y="564.199219" xlink:href="#u"/>
  <use x="88.675781" y="564.199219" xlink:href="#d"/>
  <use x="89.15625" y="564.199219" xlink:href="#b"/>
  <use x="90.589844" y="564.199219" xlink:href="#k"/>
  <use x="91.070312" y="564.199219" xlink:href="#b"/>
  <use x="92.015625" y="564.199219" xlink:href="#j"/>
  <use x="92.847656" y="564.199219" xlink:href="#j"/>
  <use x="93.679688" y="564.199219" xlink:href="#i"/>
  <use x="95.140625" y="564.199219" xlink:href="#d"/>
  <use x="95.617188" y="564.199219" xlink:href="#g"/>
  <use x="96.617188" y="564.199219" xlink:href="#a"/>
  <use x="70" y="565.601562" xlink:href="#t"/>
  <use x="70.609375" y="565.601562" xlink:href="#c"/>
  <use x="71.300781" y="565.601562" xlink:href="#f"/>
  <use x="72.261719" y="565.601562" xlink:href="#i"/>
  <use x="74.207031" y="565.601562" xlink:href="#e"/>
  <use x="74.875" y="565.601562" xlink:href="#s"/>
  <use x="75.875" y="565.601562" xlink:href="#a"/>
  <use x="77.308594" y="565.601562" xlink:href="#r"/>
  <use x="78.480469" y="565.601562" xlink:href="#f"/>
  <use x="79.445312" y="565.601562" xlink:href="#q"/>
  <use x="80.441406" y="565.601562" xlink:href="#g"/>
  <use x="81.925781" y="565.601562" xlink:href="#p"/>
  <use x="82.949219" y="565.601562" xlink:href="#c"/>
  <use x="83.640625" y="565.601562" xlink:href="#f"/>
  <use x="84.601563" y="565.601562" xlink:href="#k"/>
  <use x="85.082031" y="565.601562" xlink:href="#a"/>
  <use x="86.03125" y="565.601562" xlink:href="#o"/>
  <use x="86.863281" y="565.601562" xlink:href="#e"/>
 </g>
</svg>
